<svg width="17" height="17" fill="none" xmlns="http://www.w3.org/2000/svg"><path d="M11.298 15.283a.789.789 0 0 1-.266-.044.612.612 0 0 1-.23-.151l-2.019-2.02a.671.671 0 0 1-.194-.495c0-.2.065-.366.194-.496a.672.672 0 0 1 .496-.194c.2 0 .366.064.496.194l1.523 1.523 3.506-3.506a.672.672 0 0 1 .496-.195c.2 0 .366.065.496.195s.195.295.195.496c0 .2-.065.366-.195.496l-4.002 4.002a.624.624 0 0 1-.23.15.767.767 0 0 1-.266.045ZM2.833 4.25 8.5 7.792l5.667-3.542H2.833Zm0 9.917a1.36 1.36 0 0 1-1-.417 1.361 1.361 0 0 1-.416-1v-8.5c0-.39.139-.723.416-1a1.361 1.361 0 0 1 1-.417h11.334c.39 0 .723.14 1 .417.278.278.417.611.416 1v3.081l-.708.709-.708.708V5.667L8.872 8.978a.745.745 0 0 1-.372.107.72.72 0 0 1-.372-.107L2.833 5.667v7.083h3.648l1.417 1.417H2.833Z" fill="#000"/></svg>