<svg width="4" height="5" viewBox="0 0 4 5" fill="none" xmlns="http://www.w3.org/2000/svg">
<path d="M3.55556 2.42513C3.55556 1.95798 3.40459 1.56166 3.10267 1.23617C2.80089 0.910839 2.43333 0.748174 2 0.748174V0.269043C2.27778 0.269043 2.538 0.3259 2.78067 0.439614C3.02319 0.553487 3.2343 0.707288 3.414 0.901016C3.59356 1.09459 3.73615 1.32217 3.84178 1.58378C3.94726 1.84522 4 2.12567 4 2.42513H3.55556ZM2.66667 2.42513C2.66667 2.22549 2.60185 2.0558 2.47222 1.91606C2.34259 1.77631 2.18519 1.70644 2 1.70644V1.2273C2.30741 1.2273 2.56948 1.34405 2.78622 1.57755C3.00281 1.81121 3.11111 2.09373 3.11111 2.42513H2.66667ZM3.76667 4.5932C3.28889 4.5932 2.82319 4.4794 2.36956 4.25182C1.91578 4.02423 1.51393 3.72078 1.164 3.34147C0.813926 2.96216 0.532444 2.52791 0.319556 2.03871C0.106519 1.54968 0 1.04763 0 0.532565V0.406793C0 0.362873 0.00370369 0.320949 0.0111111 0.281021H1.31111L1.51667 1.48484L0.883333 2.17359C1.03889 2.46107 1.2343 2.73058 1.46956 2.98212C1.70467 3.23366 1.96296 3.45127 2.24444 3.63494L2.88889 2.9402L4 3.17976V4.58122C3.96296 4.58521 3.92407 4.58825 3.88333 4.59032C3.84259 4.59224 3.8037 4.5932 3.76667 4.5932Z" fill="black"/>
</svg>
