<svg width="8" height="7" fill="none" xmlns="http://www.w3.org/2000/svg"><path d="M7.227 6.89 4.682 4.66a2.84 2.84 0 0 1-.784.378c-.296.093-.61.14-.943.14-.826 0-1.525-.25-2.097-.752C.286 3.925 0 3.312 0 2.589 0 1.865.286 1.253.858.752 1.43.251 2.13 0 2.955 0S4.479.25 5.05.752c.572.501.858 1.114.858 1.837 0 .292-.053.567-.159.826-.106.26-.25.488-.432.687l2.557 2.24a.344.344 0 0 1 .125.27.358.358 0 0 1-.136.278.465.465 0 0 1-.319.11.465.465 0 0 1-.318-.11ZM2.955 4.381c.568 0 1.05-.174 1.449-.523.398-.348.596-.771.596-1.27 0-.497-.199-.92-.597-1.269-.398-.348-.88-.523-1.448-.522-.569 0-1.052.174-1.45.523-.397.348-.596.771-.596 1.269 0 .498.199.921.597 1.27.398.348.88.522 1.449.522Z" fill="#29531B"/></svg>