<svg width="18" height="25" viewBox="0 0 18 25" fill="none" xmlns="http://www.w3.org/2000/svg">
<path d="M16.2614 24.6088L10.5341 16.643C10.0227 17.2119 9.43466 17.6624 8.76989 17.9943C8.10511 18.3262 7.39773 18.4922 6.64773 18.4922C4.78977 18.4922 3.2175 17.597 1.93091 15.8065C0.644318 14.0161 0.000681818 11.8293 0 9.24609C0 6.66192 0.643636 4.47511 1.93091 2.68563C3.21818 0.896159 4.79045 0.000948317 6.64773 0C8.50568 0 10.078 0.895211 11.3645 2.68563C12.6511 4.47606 13.2948 6.66287 13.2955 9.24609C13.2955 10.2892 13.1761 11.2731 12.9375 12.1977C12.6989 13.1223 12.375 13.9403 11.9659 14.6515L17.7188 22.6529C17.9062 22.9137 18 23.2338 18 23.6131C18 23.9924 17.8977 24.3243 17.6932 24.6088C17.5057 24.8696 17.267 25 16.9773 25C16.6875 25 16.4489 24.8696 16.2614 24.6088ZM6.64773 15.6472C7.92614 15.6472 9.01295 15.0247 9.90818 13.7795C10.8034 12.5344 11.2507 11.0232 11.25 9.24609C11.25 7.46799 10.8024 5.95638 9.90716 4.71124C9.01193 3.4661 7.92545 2.844 6.64773 2.84495C5.36932 2.84495 4.2825 3.46752 3.38727 4.71266C2.49205 5.9578 2.04477 7.46894 2.04545 9.24609C2.04545 11.0242 2.49307 12.5358 3.3883 13.7809C4.28352 15.0261 5.37 15.6482 6.64773 15.6472Z" fill="#29531B"/>
</svg>
