<svg width="13" height="15" viewBox="0 0 13 15" fill="none" xmlns="http://www.w3.org/2000/svg">
<path d="M6.49967 7.50033C6.88926 7.50033 7.22288 7.36149 7.50055 7.08383C7.77774 6.80663 7.91634 6.47324 7.91634 6.08366C7.91634 5.69408 7.77774 5.36045 7.50055 5.08278C7.22288 4.80559 6.88926 4.66699 6.49967 4.66699C6.11009 4.66699 5.7767 4.80559 5.49951 5.08278C5.22184 5.36045 5.08301 5.69408 5.08301 6.08366C5.08301 6.47324 5.22184 6.80663 5.49951 7.08383C5.7767 7.36149 6.11009 7.50033 6.49967 7.50033ZM6.49967 12.7066C7.93995 11.3844 9.00835 10.183 9.70488 9.10258C10.4014 8.0226 10.7497 7.06352 10.7497 6.22533C10.7497 4.93852 10.3393 3.88476 9.51859 3.06403C8.69834 2.24378 7.69204 1.83366 6.49967 1.83366C5.30731 1.83366 4.30077 2.24378 3.48005 3.06403C2.6598 3.88476 2.24967 4.93852 2.24967 6.22533C2.24967 7.06352 2.59794 8.0226 3.29447 9.10258C3.99099 10.183 5.0594 11.3844 6.49967 12.7066ZM6.49967 14.5837C4.59898 12.9663 3.17948 11.4639 2.24117 10.0765C1.3024 8.68962 0.833008 7.40588 0.833008 6.22533C0.833008 4.45449 1.40274 3.04373 2.54222 1.99303C3.68122 0.942339 5.00037 0.416992 6.49967 0.416992C7.99898 0.416992 9.31813 0.942339 10.4571 1.99303C11.5966 3.04373 12.1663 4.45449 12.1663 6.22533C12.1663 7.40588 11.6972 8.68962 10.7589 10.0765C9.82011 11.4639 8.40037 12.9663 6.49967 14.5837Z" fill="black"/>
</svg>
