<svg width="13" height="15" viewBox="0 0 13 15" fill="none" xmlns="http://www.w3.org/2000/svg">
<path d="M6.49992 7.50033C6.8895 7.50033 7.22313 7.36149 7.50079 7.08383C7.77799 6.80663 7.91659 6.47324 7.91659 6.08366C7.91659 5.69408 7.77799 5.36045 7.50079 5.08278C7.22313 4.80559 6.8895 4.66699 6.49992 4.66699C6.11034 4.66699 5.77695 4.80559 5.49975 5.08278C5.22209 5.36045 5.08325 5.69408 5.08325 6.08366C5.08325 6.47324 5.22209 6.80663 5.49975 7.08383C5.77695 7.36149 6.11034 7.50033 6.49992 7.50033ZM6.49992 12.7066C7.9402 11.3844 9.0086 10.183 9.70513 9.10258C10.4017 8.0226 10.7499 7.06352 10.7499 6.22533C10.7499 4.93852 10.3396 3.88476 9.51883 3.06403C8.69858 2.24378 7.69228 1.83366 6.49992 1.83366C5.30756 1.83366 4.30102 2.24378 3.48029 3.06403C2.66004 3.88476 2.24992 4.93852 2.24992 6.22533C2.24992 7.06352 2.59818 8.0226 3.29471 9.10258C3.99124 10.183 5.05964 11.3844 6.49992 12.7066ZM6.49992 14.5837C4.59922 12.9663 3.17972 11.4639 2.24142 10.0765C1.30264 8.68962 0.833252 7.40588 0.833252 6.22533C0.833252 4.45449 1.40299 3.04373 2.54246 1.99303C3.68146 0.942339 5.00061 0.416992 6.49992 0.416992C7.99922 0.416992 9.31838 0.942339 10.4574 1.99303C11.5968 3.04373 12.1666 4.45449 12.1666 6.22533C12.1666 7.40588 11.6974 8.68962 10.7591 10.0765C9.82035 11.4639 8.40061 12.9663 6.49992 14.5837Z" fill="black"/>
</svg>
