<svg width="15" height="14" viewBox="0 0 15 14" fill="none" xmlns="http://www.w3.org/2000/svg">
<path d="M10.2982 13.2822C10.2038 13.2822 10.1153 13.2676 10.0326 13.2383C9.94998 13.209 9.87324 13.1587 9.80241 13.0874L7.78366 11.0687C7.6538 10.9388 7.58887 10.7735 7.58887 10.5728C7.58887 10.3721 7.6538 10.2069 7.78366 10.077C7.91352 9.94714 8.0788 9.88221 8.27949 9.88221C8.48019 9.88221 8.64547 9.94714 8.77533 10.077L10.2982 11.5999L13.8045 8.09367C13.9344 7.96381 14.0996 7.89888 14.3003 7.89888C14.501 7.89888 14.6663 7.96381 14.7962 8.09367C14.926 8.22353 14.991 8.38881 14.991 8.5895C14.991 8.7902 14.926 8.95547 14.7962 9.08534L10.7941 13.0874C10.7232 13.1583 10.6465 13.2085 10.5639 13.2383C10.4812 13.268 10.3927 13.2827 10.2982 13.2822ZM1.83366 2.24992L7.50033 5.79159L13.167 2.24992H1.83366ZM1.83366 12.1666C1.44408 12.1666 1.11045 12.0278 0.832785 11.7501C0.555118 11.4724 0.416521 11.139 0.416993 10.7499V2.24992C0.416993 1.86034 0.555827 1.52671 0.833493 1.24904C1.11116 0.971378 1.44455 0.832781 1.83366 0.833253H13.167C13.5566 0.833253 13.8902 0.972086 14.1679 1.24975C14.4455 1.52742 14.5841 1.86081 14.5837 2.24992V5.33117L13.8753 6.0395L13.167 6.74784V3.66659L7.8722 6.97804C7.81317 7.01346 7.75108 7.04014 7.68591 7.05809C7.62074 7.07603 7.55888 7.08477 7.50033 7.08429C7.4413 7.08429 7.3792 7.07556 7.31404 7.05809C7.24887 7.04061 7.18701 7.01393 7.12845 6.97804L1.83366 3.66659V10.7499H5.48158L6.89824 12.1666H1.83366Z" fill="black"/>
</svg>
