<svg width="13" height="15" viewBox="0 0 13 15" fill="none" xmlns="http://www.w3.org/2000/svg">
<path d="M6.49967 7.50008C6.88926 7.50008 7.22288 7.36125 7.50055 7.08358C7.77774 6.80639 7.91634 6.473 7.91634 6.08341C7.91634 5.69383 7.77774 5.36021 7.50055 5.08254C7.22288 4.80535 6.88926 4.66675 6.49967 4.66675C6.11009 4.66675 5.7767 4.80535 5.49951 5.08254C5.22184 5.36021 5.08301 5.69383 5.08301 6.08341C5.08301 6.473 5.22184 6.80639 5.49951 7.08358C5.7767 7.36125 6.11009 7.50008 6.49967 7.50008ZM6.49967 12.7063C7.93995 11.3841 9.00835 10.1828 9.70488 9.10233C10.4014 8.02236 10.7497 7.06328 10.7497 6.22508C10.7497 4.93828 10.3393 3.88451 9.51859 3.06379C8.69834 2.24354 7.69204 1.83341 6.49967 1.83341C5.30731 1.83341 4.30077 2.24354 3.48005 3.06379C2.6598 3.88451 2.24967 4.93828 2.24967 6.22508C2.24967 7.06328 2.59794 8.02236 3.29447 9.10233C3.99099 10.1828 5.0594 11.3841 6.49967 12.7063ZM6.49967 14.5834C4.59898 12.9661 3.17948 11.4637 2.24117 10.0763C1.3024 8.68937 0.833008 7.40564 0.833008 6.22508C0.833008 4.45425 1.40274 3.04348 2.54222 1.99279C3.68122 0.942095 5.00037 0.416748 6.49967 0.416748C7.99898 0.416748 9.31813 0.942095 10.4571 1.99279C11.5966 3.04348 12.1663 4.45425 12.1663 6.22508C12.1663 7.40564 11.6972 8.68937 10.7589 10.0763C9.82011 11.4637 8.40037 12.9661 6.49967 14.5834Z" fill="black"/>
</svg>
