<svg width="15" height="13" viewBox="0 0 15 13" fill="none" xmlns="http://www.w3.org/2000/svg">
<path d="M13.0243 6.48199C13.0243 5.07756 12.5124 3.88608 11.4887 2.90753C10.4655 1.92947 9.21927 1.44044 7.75 1.44044V0C8.69184 0 9.57416 0.170933 10.3969 0.512798C11.2192 0.855143 11.935 1.31753 12.5443 1.89994C13.1531 2.48188 13.6366 3.16609 13.9948 3.95258C14.3524 4.73858 14.5312 5.58172 14.5312 6.48199H13.0243ZM10.0104 6.48199C10.0104 5.88181 9.79065 5.37165 9.35113 4.95152C8.9116 4.53139 8.37789 4.32133 7.75 4.32133V2.88089C8.7923 2.88089 9.6809 3.23187 10.4158 3.93385C11.1502 4.63631 11.5174 5.48569 11.5174 6.48199H10.0104ZM13.7401 13C12.1201 13 10.5411 12.6579 9.00302 11.9737C7.46443 11.2895 6.1019 10.3772 4.91544 9.23684C3.72847 8.09649 2.77407 6.79097 2.05224 5.32028C1.32991 3.85006 0.96875 2.34072 0.96875 0.792244V0.414127C0.96875 0.282087 0.981308 0.156048 1.00642 0.036011H5.41424L6.1112 3.65512L3.9638 5.72576C4.49123 6.59003 5.15379 7.40028 5.95146 8.15651C6.74864 8.91274 7.62442 9.56694 8.57882 10.1191L10.7639 8.03047L14.5312 8.75069V12.964C14.4057 12.976 14.2738 12.9851 14.1357 12.9914C13.9975 12.9971 13.8657 13 13.7401 13Z" fill="black"/>
</svg>
