<svg width="15" height="14" viewBox="0 0 15 14" fill="none" xmlns="http://www.w3.org/2000/svg">
<path d="M10.2982 13.282C10.2038 13.282 10.1153 13.2673 10.0326 13.2381C9.94998 13.2088 9.87324 13.1585 9.80241 13.0872L7.78366 11.0684C7.6538 10.9386 7.58887 10.7733 7.58887 10.5726C7.58887 10.3719 7.6538 10.2066 7.78366 10.0768C7.91352 9.9469 8.0788 9.88197 8.27949 9.88197C8.48019 9.88197 8.64547 9.9469 8.77533 10.0768L10.2982 11.5997L13.8045 8.09343C13.9344 7.96356 14.0996 7.89863 14.3003 7.89863C14.501 7.89863 14.6663 7.96356 14.7962 8.09343C14.926 8.22329 14.991 8.38856 14.991 8.58926C14.991 8.78995 14.926 8.95523 14.7962 9.08509L10.7941 13.0872C10.7232 13.158 10.6465 13.2083 10.5639 13.2381C10.4812 13.2678 10.3927 13.2824 10.2982 13.282ZM1.83366 2.24968L7.50033 5.79134L13.167 2.24968H1.83366ZM1.83366 12.1663C1.44408 12.1663 1.11045 12.0275 0.832785 11.7498C0.555118 11.4722 0.416521 11.1388 0.416993 10.7497V2.24968C0.416993 1.86009 0.555827 1.52647 0.833493 1.2488C1.11116 0.971134 1.44455 0.832537 1.83366 0.833009H13.167C13.5566 0.833009 13.8902 0.971842 14.1679 1.24951C14.4455 1.52718 14.5841 1.86056 14.5837 2.24968V5.33093L13.8753 6.03926L13.167 6.74759V3.66634L7.8722 6.9778C7.81317 7.01322 7.75108 7.0399 7.68591 7.05784C7.62074 7.07579 7.55888 7.08452 7.50033 7.08405C7.4413 7.08405 7.3792 7.07531 7.31404 7.05784C7.24887 7.04037 7.18701 7.01369 7.12845 6.9778L1.83366 3.66634V10.7497H5.48158L6.89824 12.1663H1.83366Z" fill="black"/>
</svg>
