<svg width="20" height="16" viewBox="0 0 20 16" fill="none" xmlns="http://www.w3.org/2000/svg">
<path fill-rule="evenodd" clip-rule="evenodd" d="M19.5938 1.89401C18.8672 2.22104 18.0977 2.43536 17.3104 2.53001C18.137 2.02981 18.7584 1.23547 19.058 0.296012C18.2763 0.767011 17.4231 1.09834 16.5344 1.27601C16.1598 0.871503 15.7094 0.54981 15.2107 0.330462C14.7119 0.111114 14.1752 -0.00131115 13.633 1.15368e-05C11.4378 1.15368e-05 9.65825 1.80801 9.65825 4.04001C9.65825 4.35601 9.69313 4.66401 9.76094 4.96001C8.18624 4.88285 6.64441 4.46773 5.23381 3.74114C3.8232 3.01455 2.57479 1.99244 1.56822 0.740012C1.21519 1.35441 1.02912 2.05567 1.02959 2.77001C1.03064 3.43799 1.19292 4.09517 1.50177 4.68216C1.81062 5.26915 2.2563 5.76745 2.79853 6.13201C2.16813 6.11208 1.55115 5.93907 0.997625 5.62701V5.67701C0.997625 7.63401 2.36744 9.26701 4.18481 9.63801C3.59933 9.79933 2.98629 9.82325 2.39069 9.70801C2.89638 11.312 4.36403 12.48 6.10391 12.513C4.68953 13.6385 2.953 14.247 1.16716 14.243C0.850198 14.2427 0.533525 14.2233 0.21875 14.185C2.04224 15.3738 4.15546 16.0033 6.31219 16C13.6233 16 17.6214 9.84501 17.6214 4.50801C17.6214 4.33301 17.6175 4.15801 17.6097 3.98501C18.3865 3.41596 19.0584 2.70716 19.5938 1.89401Z" fill="black"/>
</svg>
