<svg width="20" height="20" viewBox="0 0 20 20" fill="none" xmlns="http://www.w3.org/2000/svg">
<path d="M9.84375 7.52C9.36858 7.52 8.90408 7.66545 8.50899 7.93795C8.1139 8.21046 7.80597 8.59778 7.62413 9.05095C7.44229 9.50411 7.39471 10.0028 7.48741 10.4838C7.58011 10.9649 7.80893 11.4068 8.14493 11.7536C8.48092 12.1005 8.90901 12.3367 9.37505 12.4323C9.84109 12.528 10.3241 12.4789 10.7631 12.2912C11.2021 12.1035 11.5774 11.7856 11.8414 11.3778C12.1053 10.97 12.2462 10.4905 12.2462 10C12.2462 9.67432 12.1841 9.35183 12.0634 9.05095C11.9426 8.75006 11.7657 8.47666 11.5426 8.24638C11.3195 8.01609 11.0546 7.83341 10.7631 7.70878C10.4717 7.58415 10.1593 7.52 9.84375 7.52ZM19.4634 5.07C19.4583 4.29776 19.3206 3.53257 19.0566 2.81C18.8621 2.28126 18.5613 1.80109 18.1739 1.40119C17.7864 1.00128 17.3213 0.690718 16.8091 0.49C16.1091 0.217464 15.3678 0.0752609 14.6197 0.0699999C13.37 -6.70552e-08 13.0019 0 9.84375 0C6.68563 0 6.3175 -6.70552e-08 5.06781 0.0699999C4.3197 0.0752609 3.57843 0.217464 2.87844 0.49C2.36622 0.690718 1.90106 1.00128 1.51365 1.40119C1.12624 1.80109 0.825383 2.28126 0.630938 2.81C0.366918 3.53257 0.229159 4.29776 0.224062 5.07C0.15625 6.36 0.15625 6.74 0.15625 10C0.15625 13.26 0.15625 13.64 0.224062 14.93C0.23449 15.705 0.372063 16.4725 0.630938 17.2C0.824521 17.7263 1.12512 18.2037 1.5125 18.6C1.89825 19.0023 2.36441 19.3129 2.87844 19.51C3.57843 19.7825 4.3197 19.9247 5.06781 19.93C6.3175 20 6.68563 20 9.84375 20C13.0019 20 13.37 20 14.6197 19.93C15.3678 19.9247 16.1091 19.7825 16.8091 19.51C17.3231 19.3129 17.7893 19.0023 18.175 18.6C18.5624 18.2037 18.863 17.7263 19.0566 17.2C19.3203 16.4739 19.4581 15.7055 19.4634 14.93C19.5313 13.64 19.5312 13.26 19.5312 10C19.5312 6.74 19.5313 6.36 19.4634 5.07ZM17.0028 13.07C16.9717 13.6871 16.8441 14.295 16.625 14.87C16.4369 15.3497 16.1574 15.7854 15.8029 16.1514C15.4484 16.5173 15.0263 16.8059 14.5616 17C13.9992 17.2136 13.4071 17.3318 12.8081 17.35H6.87937C6.28043 17.3318 5.68829 17.2136 5.12594 17C4.64554 16.8157 4.21171 16.5217 3.85688 16.14C3.50586 15.7813 3.23479 15.3479 3.0625 14.87C2.85476 14.2901 2.7434 13.6782 2.73312 13.06V6.94C2.7434 6.32183 2.85476 5.70988 3.0625 5.13C3.24102 4.6341 3.52583 4.18628 3.89563 3.82C4.2447 3.45962 4.6641 3.18009 5.12594 3C5.68829 2.78641 6.28043 2.66821 6.87937 2.65H12.8081C13.4071 2.66821 13.9992 2.78641 14.5616 3C15.042 3.18428 15.4758 3.47827 15.8306 3.86C16.1816 4.21875 16.4527 4.65213 16.625 5.13C16.8319 5.71049 16.9464 6.32173 16.9641 6.94V10C16.9641 12.06 17.0319 12.27 17.0028 13.06V13.07ZM15.4528 5.63C15.3375 5.30698 15.1556 5.01364 14.9198 4.77021C14.684 4.52678 14.3998 4.33906 14.0869 4.22C13.6572 4.06626 13.2047 3.99179 12.75 4H6.9375C6.48051 4.00461 6.02791 4.09263 5.60062 4.26C5.29249 4.37366 5.01133 4.55371 4.77582 4.7882C4.5403 5.02269 4.35584 5.30624 4.23469 5.62C4.094 6.06537 4.02527 6.5316 4.03125 7V13C4.04085 13.4712 4.12596 13.9375 4.28313 14.38C4.39847 14.703 4.58032 14.9964 4.81614 15.2398C5.05197 15.4832 5.33614 15.6709 5.64906 15.79C6.0624 15.9469 6.49735 16.0347 6.9375 16.05H12.75C13.207 16.0454 13.6596 15.9574 14.0869 15.79C14.3998 15.6709 14.684 15.4832 14.9198 15.2398C15.1556 14.9964 15.3375 14.703 15.4528 14.38C15.6149 13.9389 15.7002 13.4717 15.7047 13V7C15.705 6.5278 15.6195 6.05972 15.4528 5.62V5.63ZM9.84375 13.82C9.35823 13.82 8.87749 13.7211 8.42905 13.529C7.98061 13.3369 7.57329 13.0554 7.23043 12.7005C6.88757 12.3457 6.6159 11.9245 6.43098 11.4611C6.24607 10.9977 6.15154 10.5012 6.15281 10C6.15281 9.24405 6.3701 8.5051 6.77716 7.87669C7.18422 7.24828 7.76275 6.75866 8.43952 6.46983C9.11628 6.181 9.86085 6.10594 10.579 6.25415C11.2971 6.40236 11.9564 6.76717 12.4736 7.30241C12.9908 7.83764 13.3424 8.51924 13.4841 9.2609C13.6258 10.0026 13.5512 10.771 13.2696 11.4688C12.988 12.1666 12.5122 12.7625 11.9023 13.1811C11.2925 13.5996 10.5761 13.822 9.84375 13.82ZM13.7188 6.93C13.5046 6.9066 13.3064 6.80222 13.1624 6.63697C13.0183 6.47172 12.9387 6.25729 12.9387 6.035C12.9387 5.81271 13.0183 5.59828 13.1624 5.43303C13.3064 5.26778 13.5046 5.1634 13.7188 5.14C13.9329 5.1634 14.1311 5.26778 14.2751 5.43303C14.4192 5.59828 14.4988 5.81271 14.4988 6.035C14.4988 6.25729 14.4192 6.47172 14.2751 6.63697C14.1311 6.80222 13.9329 6.9066 13.7188 6.93Z" fill="black"/>
</svg>
