<svg width="15" height="14" viewBox="0 0 15 14" fill="none" xmlns="http://www.w3.org/2000/svg">
<path d="M10.298 13.282C10.2036 13.282 10.115 13.2673 10.0324 13.2381C9.94974 13.2088 9.873 13.1585 9.80217 13.0872L7.78342 11.0684C7.65355 10.9386 7.58862 10.7733 7.58862 10.5726C7.58862 10.3719 7.65355 10.2066 7.78342 10.0768C7.91328 9.9469 8.07856 9.88197 8.27925 9.88197C8.47994 9.88197 8.64522 9.9469 8.77508 10.0768L10.298 11.5997L13.8042 8.09343C13.9341 7.96356 14.0994 7.89863 14.3001 7.89863C14.5008 7.89863 14.6661 7.96356 14.7959 8.09343C14.9258 8.22329 14.9907 8.38856 14.9907 8.58926C14.9907 8.78995 14.9258 8.95523 14.7959 9.08509L10.7938 13.0872C10.723 13.158 10.6463 13.2083 10.5636 13.2381C10.481 13.2678 10.3924 13.2824 10.298 13.282ZM1.83342 2.24968L7.50008 5.79134L13.1667 2.24968H1.83342ZM1.83342 12.1663C1.44383 12.1663 1.11021 12.0275 0.832541 11.7498C0.554874 11.4722 0.416277 11.1388 0.416749 10.7497V2.24968C0.416749 1.86009 0.555583 1.52647 0.833249 1.2488C1.11092 0.971134 1.4443 0.832537 1.83342 0.833009H13.1667C13.5563 0.833009 13.89 0.971842 14.1676 1.24951C14.4453 1.52718 14.5839 1.86056 14.5834 2.24968V5.33093L13.8751 6.03926L13.1667 6.74759V3.66634L7.87196 6.9778C7.81293 7.01322 7.75083 7.0399 7.68567 7.05784C7.6205 7.07579 7.55864 7.08452 7.50008 7.08405C7.44105 7.08405 7.37896 7.07531 7.31379 7.05784C7.24862 7.04037 7.18676 7.01369 7.12821 6.9778L1.83342 3.66634V10.7497H5.48133L6.898 12.1663H1.83342Z" fill="black"/>
</svg>
