<svg width="17" height="17" fill="none" xmlns="http://www.w3.org/2000/svg"><path d="M8.5 8.5c.39 0 .723-.139 1-.417.278-.277.417-.61.417-1s-.139-.723-.416-1A1.366 1.366 0 0 0 8.5 5.665c-.39 0-.723.14-1 .416a1.365 1.365 0 0 0-.417 1.001c0 .39.14.723.417 1 .277.278.61.417 1 .417Zm0 5.206c1.44-1.322 2.509-2.524 3.205-3.604.697-1.08 1.045-2.039 1.045-2.877 0-1.287-.41-2.34-1.231-3.161-.82-.82-1.827-1.23-3.02-1.23-1.191 0-2.198.41-3.019 1.23-.82.82-1.23 1.874-1.23 3.16 0 .839.348 1.798 1.045 2.878.696 1.08 1.765 2.282 3.205 3.604Zm0 1.877c-1.9-1.617-3.32-3.12-4.259-4.507-.938-1.387-1.408-2.67-1.408-3.851 0-1.771.57-3.182 1.71-4.232C5.68 1.942 7 1.417 8.5 1.417s2.818.525 3.957 1.576c1.14 1.05 1.71 2.461 1.71 4.232 0 1.18-.47 2.464-1.408 3.851-.939 1.387-2.358 2.89-4.26 4.507Z" fill="#000"/></svg>