<svg width="15" height="13" fill="none" xmlns="http://www.w3.org/2000/svg"><path d="M13.024 6.482c0-1.404-.512-2.596-1.535-3.574-1.024-.979-2.27-1.468-3.739-1.468V0c.942 0 1.824.17 2.647.513A6.925 6.925 0 0 1 12.544 1.9a6.586 6.586 0 0 1 1.45 2.053c.358.786.537 1.629.537 2.529h-1.507Zm-3.014 0c0-.6-.22-1.11-.659-1.53-.44-.42-.973-.63-1.601-.63V2.88c1.042 0 1.93.35 2.666 1.053.734.702 1.101 1.552 1.101 2.548H10.01ZM13.74 13c-1.62 0-3.199-.342-4.737-1.026a14.137 14.137 0 0 1-4.088-2.737A13.86 13.86 0 0 1 2.052 5.32C1.33 3.85.97 2.34.97.792V.414c0-.132.012-.258.037-.378h4.408l.697 3.62-2.147 2.07c.527.864 1.19 1.674 1.987 2.43.798.757 1.673 1.41 2.628 1.963l2.185-2.089 3.767.72v4.214a7.987 7.987 0 0 1-.79.036Z" fill="#000"/></svg>