<svg width="20" height="16" fill="none" xmlns="http://www.w3.org/2000/svg"><path fill-rule="evenodd" clip-rule="evenodd" d="M19.594 1.894a7.844 7.844 0 0 1-2.284.636A4.04 4.04 0 0 0 19.058.296a7.884 7.884 0 0 1-2.524.98A4 4 0 0 0 15.211.33 3.894 3.894 0 0 0 13.633 0c-2.195 0-3.975 1.808-3.975 4.04 0 .316.035.624.103.92a11.065 11.065 0 0 1-4.527-1.219A11.41 11.41 0 0 1 1.568.74a4.072 4.072 0 0 0-.538 2.03c0 .668.163 1.325.472 1.912a3.974 3.974 0 0 0 1.297 1.45 3.917 3.917 0 0 1-1.801-.505v.05c0 1.957 1.37 3.59 3.187 3.961a3.935 3.935 0 0 1-1.794.07c.505 1.604 1.973 2.772 3.713 2.805a7.896 7.896 0 0 1-5.885 1.672A11.12 11.12 0 0 0 6.312 16c7.311 0 11.31-6.155 11.31-11.492 0-.175-.005-.35-.012-.523a8.136 8.136 0 0 0 1.984-2.091Z" fill="#000"/></svg>