<svg width="20" height="20" fill="none" xmlns="http://www.w3.org/2000/svg"><path d="M9.844 7.52c-.475 0-.94.145-1.335.418-.395.272-.703.66-.885 1.113a2.55 2.55 0 0 0-.137 1.433c.093.48.322.923.658 1.27a2.38 2.38 0 0 0 1.23.678c.466.096.95.047 1.388-.14a2.421 2.421 0 0 0 1.078-.914 2.538 2.538 0 0 0 .222-2.327c-.12-.3-.297-.574-.52-.805a2.4 2.4 0 0 0-.78-.537 2.337 2.337 0 0 0-.92-.189Zm9.62-2.45a6.717 6.717 0 0 0-.407-2.26 4.017 4.017 0 0 0-.883-1.409c-.388-.4-.853-.71-1.365-.911a6.152 6.152 0 0 0-2.19-.42C13.37 0 13.003 0 9.845 0 6.686 0 6.318 0 5.068.07a6.151 6.151 0 0 0-2.19.42c-.512.2-.977.511-1.364.911-.388.4-.689.88-.883 1.409a6.717 6.717 0 0 0-.407 2.26C.156 6.36.156 6.74.156 10s0 3.64.068 4.93a7.04 7.04 0 0 0 .407 2.27c.194.526.494 1.004.881 1.4.386.402.852.713 1.366.91.7.272 1.442.415 2.19.42 1.25.07 1.618.07 4.776.07 3.158 0 3.526 0 4.776-.07a6.153 6.153 0 0 0 2.19-.42c.513-.197.98-.508 1.365-.91.387-.396.688-.874.882-1.4a6.788 6.788 0 0 0 .406-2.27c.068-1.29.068-1.67.068-4.93s0-3.64-.068-4.93Zm-2.461 8a5.89 5.89 0 0 1-.378 1.8c-.188.48-.468.915-.822 1.281a3.732 3.732 0 0 1-1.241.849 5.399 5.399 0 0 1-1.754.35H6.88A5.398 5.398 0 0 1 5.126 17a3.394 3.394 0 0 1-1.27-.86 3.523 3.523 0 0 1-.793-1.27 5.647 5.647 0 0 1-.33-1.81V6.94c.01-.618.122-1.23.33-1.81a3.51 3.51 0 0 1 .833-1.31c.349-.36.768-.64 1.23-.82a5.399 5.399 0 0 1 1.753-.35h5.93a5.4 5.4 0 0 1 1.753.35c.48.184.914.478 1.269.86.35.359.622.792.794 1.27.207.58.321 1.192.34 1.81V10c0 2.06.067 2.27.038 3.06v.01Zm-1.55-7.44a2.39 2.39 0 0 0-.533-.86 2.298 2.298 0 0 0-.833-.55A3.765 3.765 0 0 0 12.75 4H6.937c-.456.005-.91.093-1.336.26-.309.114-.59.294-.825.528a2.38 2.38 0 0 0-.541.832c-.141.445-.21.912-.204 1.38v6c.01.471.095.938.252 1.38.115.323.297.616.533.86a2.3 2.3 0 0 0 .833.55c.413.157.848.245 1.288.26h5.813c.457-.005.91-.093 1.337-.26a2.3 2.3 0 0 0 .833-.55 2.39 2.39 0 0 0 .533-.86 4.13 4.13 0 0 0 .252-1.38V7c0-.472-.085-.94-.252-1.38v.01Zm-5.61 8.19a3.59 3.59 0 0 1-1.414-.291A3.685 3.685 0 0 1 7.23 12.7a3.82 3.82 0 0 1-.799-1.239A3.917 3.917 0 0 1 6.153 10c0-.756.217-1.495.624-2.123A3.728 3.728 0 0 1 8.44 6.47a3.593 3.593 0 0 1 2.139-.216 3.667 3.667 0 0 1 1.895 1.048 3.86 3.86 0 0 1 1.01 1.959c.142.742.067 1.51-.214 2.208a3.796 3.796 0 0 1-1.368 1.712 3.614 3.614 0 0 1-2.058.639Zm3.876-6.89a.863.863 0 0 1-.557-.293.916.916 0 0 1-.223-.602c0-.222.08-.437.223-.602a.863.863 0 0 1 .557-.293.863.863 0 0 1 .556.293.916.916 0 0 1 0 1.204.863.863 0 0 1-.556.293Z" fill="#000"/></svg>