<svg width="7" height="6" fill="none" xmlns="http://www.w3.org/2000/svg"><path d="M5.091 3.3a.722.722 0 0 0 .612-.309l1.253-1.947a.266.266 0 0 0-.004-.297.33.33 0 0 0-.127-.108A.394.394 0 0 0 6.652.6H1.473L1.144 0H0v.6h.7l1.26 2.277-.473.732c-.255.402.08.891.612.891h4.2v-.6h-4.2l.385-.6h2.607ZM1.806 1.2h4.25l-.965 1.5H2.635l-.83-1.5Zm.293 3.6c-.384 0-.696.27-.696.6 0 .33.312.6.696.6.385 0 .7-.27.7-.6 0-.33-.315-.6-.7-.6Zm3.5 0c-.385 0-.697.27-.697.6 0 .33.312.6.696.6.385 0 .7-.27.7-.6 0-.33-.315-.6-.7-.6Z" fill="#29531B"/></svg>