<svg width="20" height="24" viewBox="0 0 20 24" fill="none" xmlns="http://www.w3.org/2000/svg">
<path d="M14.546 13.2C15.2958 13.2 15.9556 12.708 16.2955 11.964L19.8745 4.176C19.9588 3.99411 20.002 3.78897 19.9999 3.58087C19.9978 3.37277 19.9505 3.16893 19.8627 2.98951C19.7748 2.8101 19.6494 2.66134 19.499 2.55794C19.3485 2.45455 19.1781 2.4001 19.0048 2.4H4.20884L3.2691 0H0V2.4H1.99945L5.59846 11.508L4.24883 14.436C3.51903 16.044 4.47877 18 5.99835 18H17.995V15.6H5.99835L7.09805 13.2H14.546ZM5.15858 4.8H17.3052L14.546 10.8H7.52793L5.15858 4.8ZM5.99835 19.2C4.89865 19.2 4.0089 20.28 4.0089 21.6C4.0089 22.92 4.89865 24 5.99835 24C7.09805 24 7.9978 22.92 7.9978 21.6C7.9978 20.28 7.09805 19.2 5.99835 19.2ZM15.9956 19.2C14.8959 19.2 14.0061 20.28 14.0061 21.6C14.0061 22.92 14.8959 24 15.9956 24C17.0953 24 17.995 22.92 17.995 21.6C17.995 20.28 17.0953 19.2 15.9956 19.2Z" fill="#29531B"/>
</svg>
